<svg width="86" height="86" viewBox="0 0 86 86" fill="none" xmlns="http://www.w3.org/2000/svg">
<g clip-path="url(#clip0_4798_4368)">
<rect width="86" height="86" rx="43" fill="url(#paint0_linear_4798_4368)" style=""/>
<g opacity="0.2">
<path d="M37.9196 41.1299H28.8965V94.7909H37.9196V41.1299Z" fill="#FFFCF9" style="fill:#FFFCF9;fill:color(display-p3 1.0000 0.9882 0.9765);fill-opacity:1;"/>
<path d="M67.1851 14.4405C53.4162 15.1493 42.7712 21.2037 42.7712 21.2037C39.7194 20.4829 33.676 19.618 29.6871 19.8342C26.4432 20.0024 19.4266 20.0745 13.3471 22.8735C11.7011 23.6303 10.0671 24.7234 8.76951 26.4653C6.01814 30.1772 7.94049 35.2827 12.0495 36.58C21.7334 39.6553 31.3091 33.2285 36.3553 29.5526C36.6557 29.3243 32.9672 28.0149 32.6428 28.2312C31.8378 28.8078 30.9246 29.3964 29.579 30.2854C25.5661 32.9282 21.3009 35.2346 15.9543 34.1174C13.8157 33.6609 12.3619 32.7239 11.9534 30.5616C11.6651 29.1321 11.9654 25.1319 16.3988 23.8585C20.8683 22.5852 25.1336 23.0897 30.5282 24.0868C31.201 24.2069 31.8738 24.3751 32.5346 24.5553C35.3941 25.24 39.8396 26.5734 44.4652 29.012C44.4893 29.036 44.5253 29.048 44.5494 29.0721C44.5854 29.0961 44.6094 29.1081 44.6455 29.1201C48.4421 31.0422 53.7406 34.7181 58.4264 41.5653C63.7128 49.3016 61.5742 58.0589 57.7776 61.4705C53.26 65.5308 44.1168 64.3295 40.212 63.2364C36.3073 62.1432 28.8942 59.8608 18.8018 54.1427C16.5671 52.8814 17.2159 53.5781 18.8499 54.8755C20.9404 56.5212 24.1123 58.5874 26.1308 59.8007C28.4737 61.2182 31.3091 62.5036 34.3969 63.837C41.6057 66.9243 48.6464 67.7051 54.2573 67.1405C65.1186 66.0473 76.1481 56.5693 70.9817 41.6134C66.5964 28.988 49.2952 23.0296 47.0604 22.429C47.0604 22.429 55.7831 16.2184 72.3274 16.1103C79.1758 16.0502 85.6157 16.5668 93.7256 19.2937C97.4982 20.555 98.0028 20.1826 98.0028 20.1826C90.8541 17.2515 82.4198 13.6837 67.1731 14.4645" fill="#FFFCF9" style="fill:#FFFCF9;fill:color(display-p3 1.0000 0.9882 0.9765);fill-opacity:1;"/>
</g>
<path d="M42.118 34.1602V51.6602H40.3406V34.1602H42.118ZM38.6023 34.4922V50.8008H36.8445V45.1562H34.3055C33.6805 46.8945 32.5184 47.9004 31.0242 47.8906C28.7391 47.9102 27.2547 45.5078 27.2547 41.7188C27.2547 37.9297 28.7391 35.5469 31.0242 35.5664C32.5184 35.5566 33.6707 36.5527 34.3055 38.2812H36.8445V34.4922H38.6023ZM31.0242 37.3047C29.7352 37.3047 28.9539 38.9258 28.9539 41.7188C28.9539 44.5117 29.7352 46.1328 31.0242 46.1328C32.3133 46.1328 33.1336 44.5117 33.1336 41.7188C33.1336 38.9258 32.3133 37.3047 31.0242 37.3047ZM34.6961 39.7852C34.784 40.3809 34.8328 41.0254 34.8328 41.7188C34.8328 42.4023 34.784 43.0469 34.6961 43.6328H36.8445V39.7852H34.6961ZM60.175 36.7188V38.2422H57.6945V40.4688H60.175V42.0312H57.6945V44.5312H55.8391V34.1602H57.6945V36.7188H60.175ZM57.6945 45.3125V51.6602H55.8391V46.8164H46.132V45.3125H57.6945ZM48.8664 35.1758C51.5422 35.1758 53.5148 36.8945 53.5344 39.3555C53.5148 41.8164 51.5422 43.5352 48.8664 43.5352C46.1906 43.5352 44.1984 41.8164 44.218 39.3555C44.1984 36.8945 46.1906 35.1758 48.8664 35.1758ZM48.8664 36.7578C47.2258 36.7578 46.0148 37.793 46.0344 39.3555C46.0148 40.9375 47.2258 41.9727 48.8664 41.9531C50.507 41.9727 51.718 40.9375 51.718 39.3555C51.718 37.793 50.507 36.7578 48.8664 36.7578Z" fill="white" style="fill:white;fill:white;fill-opacity:1;"/>
</g>
<defs>
<linearGradient id="paint0_linear_4798_4368" x1="43" y1="0" x2="43" y2="86" gradientUnits="userSpaceOnUse">
<stop stop-color="#353535" style="stop-color:#353535;stop-color:color(display-p3 0.2083 0.2083 0.2083);stop-opacity:1;"/>
<stop offset="1" stop-color="#929292" style="stop-color:#929292;stop-color:color(display-p3 0.5708 0.5708 0.5708);stop-opacity:1;"/>
</linearGradient>
<clipPath id="clip0_4798_4368">
<rect width="86" height="86" rx="43" fill="white" style="fill:white;fill:white;fill-opacity:1;"/>
</clipPath>
</defs>
</svg>
