<svg width="35" height="35" viewBox="0 0 35 35" fill="none" xmlns="http://www.w3.org/2000/svg">
<circle cx="17.5" cy="17.5" r="17.5" fill="#6F6F6F"/>
<path d="M22.4928 25H12.5072C11.1273 25 10 23.8727 10 22.4928V12.5072C10 11.1273 11.1273 10 12.5072 10H22.4928C23.8727 10 25 11.1273 25 12.5072V22.4928C25 23.8789 23.8788 25 22.4928 25Z" fill="white"/>
<path d="M17.5064 21.3565C16.4776 21.3565 15.5105 20.956 14.7836 20.2291C14.0567 19.5022 13.6562 18.5351 13.6562 17.5064C13.6562 16.4776 14.0567 15.5105 14.7836 14.7836C15.5105 14.0567 16.4776 13.6562 17.5064 13.6562C18.5351 13.6562 19.5022 14.0567 20.2291 14.7836C20.956 15.5105 21.3565 16.4776 21.3565 17.5064C21.3565 18.5351 20.956 19.5022 20.2291 20.2291C19.4961 20.956 18.5351 21.3565 17.5064 21.3565ZM17.5064 14.4756C15.8369 14.4756 14.4756 15.8308 14.4756 17.5064C14.4756 19.1758 15.8308 20.5372 17.5064 20.5372C19.1758 20.5372 20.5372 19.1819 20.5372 17.5064C20.531 15.8369 19.1758 14.4756 17.5064 14.4756Z" fill="#6F6F6F"/>
<path d="M22.0986 13.5254C22.5069 13.5254 22.8379 13.1944 22.8379 12.7861C22.8379 12.3778 22.5069 12.0469 22.0986 12.0469C21.6903 12.0469 21.3594 12.3778 21.3594 12.7861C21.3594 13.1944 21.6903 13.5254 22.0986 13.5254Z" fill="#6F6F6F"/>
</svg>
