<svg width="192" height="38" viewBox="0 0 192 38" fill="none" xmlns="http://www.w3.org/2000/svg">
<path d="M6.58496 13.7363H9.5978L16.4337 27.2194H16.5753L23.2854 13.7363H26.2471V31.306H23.2854V16.9144H23.1831L15.9775 31.306H15.3718L8.08352 17.0127H7.88292V31.306H6.58496V13.7363Z" fill="#6F6F6F"/>
<path d="M43.9409 13.3311L52.2164 31.3019H49.2115L46.529 25.4375H38.9969L36.224 31.3019H34.749L43.2133 13.3311H43.9449H43.9409ZM39.5121 24.3047H45.9823L42.7924 17.3547L39.5121 24.3047Z" fill="#6F6F6F"/>
<path d="M59.0354 13.7363L65.128 22.6372L71.193 13.7363H72.7977L65.9854 23.711V31.306H63.0355V23.9863L56.0068 13.7363H59.0354Z" fill="#6F6F6F"/>
<path d="M85.8162 13.7363H82.8623V31.306H85.8162V13.7363Z" fill="#6F6F6F"/>
<path d="M104.121 13.7363H107.067V30.1693H115.909V31.306H104.121V13.7363Z" fill="#6F6F6F"/>
<path d="M130.683 13.3311L138.955 31.3019H135.954L133.267 25.4375H125.735L122.962 31.3019H121.487L129.948 13.3311H130.679H130.683ZM126.258 24.3047H132.728L129.539 17.3547L126.258 24.3047Z" fill="#6F6F6F"/>
<path d="M148.883 22.578C148.883 23.8091 149.072 24.9183 149.442 25.8898C149.811 26.8652 150.319 27.6912 150.964 28.3677C151.613 29.0482 152.38 29.5634 153.269 29.9174C154.158 30.2753 155.117 30.4563 156.152 30.4563C156.765 30.4563 157.355 30.3343 157.929 30.0984C158.5 29.8545 159.031 29.5477 159.522 29.1622C160.014 28.7768 160.455 28.3481 160.84 27.8643C161.226 27.3805 161.544 26.8888 161.8 26.3933L163.035 27.1878C162.673 27.7778 162.248 28.3441 161.757 28.8909C161.261 29.4376 160.695 29.9174 160.046 30.3343C159.397 30.7513 158.665 31.0856 157.851 31.3373C157.033 31.593 156.12 31.7149 155.113 31.7149C154.106 31.7149 153.237 31.6048 152.376 31.3845C151.522 31.1603 150.732 30.8496 150.012 30.4484C149.292 30.0472 148.651 29.5674 148.081 29.0089C147.514 28.4464 147.031 27.825 146.645 27.1484C146.252 26.4719 145.953 25.7482 145.74 24.9734C145.532 24.1985 145.422 23.4001 145.422 22.578C145.422 21.756 145.528 20.9497 145.744 20.1748C145.961 19.3921 146.264 18.6645 146.665 17.9801C147.066 17.2957 147.558 16.6664 148.136 16.0961C148.718 15.5219 149.371 15.0341 150.098 14.6251C150.826 14.216 151.621 13.9014 152.49 13.6732C153.355 13.4451 154.283 13.3311 155.263 13.3311C156.242 13.3311 157.052 13.4569 157.843 13.7086C158.63 13.9604 159.349 14.2947 160.002 14.7116C160.655 15.1285 161.233 15.6123 161.737 16.1551C162.244 16.7018 162.673 17.2682 163.035 17.8582L161.76 18.7196C161.017 17.2957 160.195 16.2574 159.286 15.5927C158.378 14.9279 157.336 14.5936 156.16 14.5936C155.141 14.5936 154.193 14.7785 153.308 15.1482C152.423 15.5179 151.652 16.0489 150.995 16.7372C150.338 17.4255 149.823 18.2633 149.446 19.2466C149.068 20.2299 148.879 21.3391 148.879 22.578" fill="#6F6F6F"/>
<path d="M182.629 13.7363V14.8691H173.37V21.1504H179.565V22.2871H173.37V30.1693H182.629V31.306H170.42V13.7363H182.629Z" fill="#6F6F6F"/>
<path d="M95.3913 5.0005C90.8839 5.23256 87.399 7.2149 87.399 7.2149C86.4 6.97891 84.4216 6.69572 83.1158 6.76652C82.0538 6.82158 79.7568 6.84518 77.7666 7.76162C77.2277 8.00941 76.6928 8.36734 76.268 8.93765C75.3673 10.153 75.9966 11.8246 77.3418 12.2494C80.512 13.2563 83.6467 11.1521 85.2987 9.94849C85.397 9.87376 84.1895 9.44504 84.0833 9.51583C83.8198 9.70463 83.5209 9.89736 83.0804 10.1884C81.7667 11.0537 80.3704 11.8089 78.6201 11.4431C77.92 11.2936 77.4441 10.9869 77.3103 10.2789C77.2159 9.81083 77.3143 8.50106 78.7656 8.08414C80.2288 7.66722 81.6251 7.83242 83.3911 8.15887C83.6113 8.19821 83.8316 8.25327 84.0479 8.31227C84.984 8.53646 86.4393 8.97305 87.9536 9.77149C87.9615 9.77936 87.9733 9.78329 87.9811 9.79116C87.9929 9.79903 88.0008 9.80296 88.0126 9.80689C89.2555 10.4362 90.9901 11.6398 92.524 13.8817C94.2546 16.4147 93.5545 19.282 92.3116 20.399C90.8327 21.7285 87.8396 21.3351 86.5613 20.9772C85.283 20.6193 82.8562 19.872 79.5523 17.9998C78.8207 17.5868 79.0331 17.8149 79.568 18.2397C80.2524 18.7786 81.2907 19.4551 81.9515 19.8523C82.7185 20.3164 83.6467 20.7373 84.6576 21.1739C87.0175 22.1847 89.3224 22.4404 91.1592 22.2555C94.7148 21.8976 98.3255 18.7943 96.6342 13.8974C95.1986 9.76363 89.5348 7.81275 88.8032 7.61609C88.8032 7.61609 91.6587 5.58262 97.0747 5.54722C99.3167 5.52755 101.425 5.69668 104.08 6.58952C105.315 7.00251 105.48 6.88058 105.48 6.88058C103.14 5.92087 100.379 4.75271 95.3874 5.00837" fill="#6F6F6F"/>
</svg>
