<svg width="174" height="34" viewBox="0 0 174 34" fill="none" xmlns="http://www.w3.org/2000/svg">
<path d="M6.09375 12.7109H8.88177L15.2076 25.1879H15.3386L21.548 12.7109H24.2887V28.9695H21.548V15.6518H21.4534L14.7854 28.9695H14.2249L7.48048 15.7428H7.29486V28.9695H6.09375V12.7109Z" fill="white"/>
<path d="M40.6623 12.3359L48.3202 28.9658H45.5395L43.0572 23.539H36.0871L33.5211 28.9658H32.1562L39.9889 12.3359H40.6659H40.6623ZM36.5639 22.4907H42.5513L39.5995 16.0594L36.5639 22.4907Z" fill="white"/>
<path d="M54.6307 12.7109L60.2686 20.9476L65.8811 12.7109H67.3661L61.0621 21.9413V28.9695H58.3323V22.196L51.8281 12.7109H54.6307Z" fill="white"/>
<path d="M79.4131 12.7109H76.6797V28.9695H79.4131V12.7109Z" fill="white"/>
<path d="M96.3516 12.7109H99.0777V27.9177H107.26V28.9695H96.3516V12.7109Z" fill="white"/>
<path d="M120.932 12.3359L128.586 28.9658H125.809L123.323 23.539H116.353L113.787 28.9658H112.422L120.251 12.3359H120.928H120.932ZM116.837 22.4907H122.824L119.872 16.0594L116.837 22.4907Z" fill="white"/>
<path d="M137.773 20.8929C137.773 22.0321 137.948 23.0585 138.29 23.9575C138.632 24.8602 139.102 25.6245 139.699 26.2506C140.299 26.8802 141.009 27.357 141.832 27.6846C142.654 28.0158 143.542 28.1833 144.499 28.1833C145.067 28.1833 145.613 28.0704 146.145 27.852C146.672 27.6264 147.164 27.3425 147.619 26.9858C148.074 26.6291 148.481 26.2324 148.838 25.7847C149.195 25.337 149.49 24.882 149.726 24.4234L150.869 25.1587C150.534 25.7046 150.141 26.2287 149.686 26.7347C149.227 27.2406 148.703 27.6846 148.103 28.0704C147.502 28.4562 146.825 28.7656 146.072 28.9986C145.315 29.2351 144.47 29.348 143.539 29.348C142.607 29.348 141.802 29.2461 141.005 29.0422C140.216 28.8348 139.484 28.5472 138.818 28.176C138.152 27.8047 137.559 27.3607 137.031 26.8438C136.507 26.3234 136.059 25.7483 135.702 25.1223C135.338 24.4962 135.062 23.8265 134.865 23.1095C134.672 22.3925 134.57 21.6536 134.57 20.8929C134.57 20.1322 134.669 19.3861 134.869 18.669C135.069 17.9447 135.349 17.2714 135.72 16.6381C136.092 16.0048 136.547 15.4224 137.082 14.8947C137.62 14.3633 138.225 13.9119 138.898 13.5334C139.571 13.1549 140.307 12.8637 141.111 12.6526C141.912 12.4415 142.771 12.3359 143.677 12.3359C144.583 12.3359 145.333 12.4524 146.065 12.6853C146.792 12.9183 147.459 13.2277 148.063 13.6135C148.667 13.9993 149.202 14.447 149.668 14.9493C150.137 15.4552 150.534 15.9793 150.869 16.5252L149.69 17.3223C149.002 16.0048 148.241 15.0439 147.4 14.4288C146.56 13.8137 145.595 13.5043 144.507 13.5043C143.564 13.5043 142.687 13.6754 141.868 14.0175C141.049 14.3596 140.336 14.851 139.728 15.4879C139.12 16.1249 138.643 16.9001 138.294 17.8101C137.944 18.72 137.77 19.7464 137.77 20.8929" fill="white"/>
<path d="M169.001 12.7109V13.7592H160.433V19.5718H166.165V20.6237H160.433V27.9177H169.001V28.9695H157.703V12.7109H169.001Z" fill="white"/>
<path d="M88.2737 4.62733C84.1026 4.84207 80.8778 6.67649 80.8778 6.67649C79.9533 6.45811 78.1225 6.19605 76.9142 6.26156C75.9314 6.31252 73.8058 6.33436 71.9641 7.18241C71.4655 7.41171 70.9705 7.74293 70.5774 8.27069C69.7439 9.39536 70.3263 10.9422 71.571 11.3353C74.5047 12.2671 77.4055 10.3198 78.9342 9.20609C79.0252 9.13694 77.9078 8.74021 77.8095 8.80572C77.5657 8.98043 77.289 9.15878 76.8814 9.42812C75.6657 10.2289 74.3736 10.9277 72.754 10.5892C72.1061 10.4509 71.6657 10.167 71.5419 9.51183C71.4546 9.0787 71.5456 7.86668 72.8886 7.48087C74.2426 7.09506 75.5347 7.24793 77.1689 7.55002C77.3728 7.58642 77.5766 7.63738 77.7768 7.69197C78.643 7.89944 79.9897 8.30344 81.391 9.04231C81.3983 9.04959 81.4092 9.05323 81.4165 9.0605C81.4274 9.06778 81.4347 9.07142 81.4456 9.07506C82.5957 9.65742 84.2009 10.7712 85.6204 12.8458C87.2218 15.1898 86.574 17.8431 85.4238 18.8768C84.0553 20.107 81.2854 19.7431 80.1025 19.4119C78.9196 19.0806 76.6739 18.3891 73.6166 16.6566C72.9396 16.2744 73.1361 16.4855 73.6311 16.8786C74.2644 17.3773 75.2253 18.0033 75.8368 18.3709C76.5465 18.8004 77.4055 19.1898 78.3409 19.5938C80.5248 20.5293 82.6576 20.7658 84.3574 20.5948C87.6477 20.2636 90.9889 17.3918 89.4239 12.8604C88.0954 9.03503 82.8542 7.22973 82.1772 7.04774C82.1772 7.04774 84.8196 5.16601 89.8315 5.13325C91.9061 5.11505 93.857 5.27156 96.3138 6.09778C97.4567 6.47995 97.6096 6.36711 97.6096 6.36711C95.4439 5.47902 92.8889 4.39803 88.2701 4.63461" fill="white"/>
</svg>
