<svg width="53" height="35" viewBox="0 0 53 35" fill="none" xmlns="http://www.w3.org/2000/svg">
<g id="Bohemian_icons" clip-path="url(#clip0_5201_9762)">
<path id="sunset" d="M50.4832 10.7311C50.6686 10.5464 50.6686 10.2485 50.4832 10.0637C50.2977 9.87898 49.9987 9.87898 49.8132 10.0637L34.0161 25.7997C33.1228 24.9759 32.1008 24.2934 30.9899 23.7712L35.9162 11.9923C36.0165 11.7529 35.903 11.4758 35.6607 11.3759C35.4222 11.2778 35.1422 11.389 35.0418 11.6304L30.1174 23.4036C28.9781 22.9775 27.7593 22.7268 26.4894 22.6759V0.971306C26.4894 0.711145 26.2774 0.5 26.0163 0.5C25.7551 0.5 25.5431 0.711145 25.5431 0.971306V22.674C24.2713 22.7249 23.0506 22.9719 21.9113 23.3904L16.9907 11.6285C16.8904 11.3872 16.6103 11.2778 16.3718 11.374C16.1315 11.4739 16.016 11.751 16.1163 11.9904L21.037 23.7523C19.9185 24.2708 18.8927 24.9495 17.9956 25.7752L2.22313 10.0637C2.03766 9.87898 1.73863 9.87898 1.55316 10.0637C1.3677 10.2485 1.3677 10.5464 1.55316 10.7311L17.3295 26.4463C16.5441 27.2947 15.8779 28.2543 15.3669 29.3081L4.4412 24.5762C4.20463 24.4744 3.92264 24.5818 3.81855 24.8213C3.71446 25.0588 3.82423 25.3378 4.06458 25.4415L14.996 30.1753C14.5834 31.2348 14.3222 32.3697 14.2333 33.5574H6.14638C5.88521 33.5574 5.67325 33.7685 5.67325 34.0287C5.67325 34.2889 5.88521 34.5 6.14638 34.5H45.8899C46.1511 34.5 46.3631 34.2889 46.3631 34.0287C46.3631 33.7685 46.1511 33.5574 45.8899 33.5574H37.7898C37.7009 32.3772 37.434 31.2461 37.0177 30.1847L47.9699 25.4415C48.2083 25.3378 48.32 25.0588 48.2159 24.8213C48.1118 24.5818 47.8317 24.4744 47.5932 24.5762L36.6411 29.3194C36.1301 28.2731 35.4658 27.3173 34.6823 26.4708L50.4813 10.733L50.4832 10.7311ZM15.1833 33.5574C15.6375 27.9451 20.3254 23.594 26.0201 23.594C31.7147 23.594 36.3875 28.0054 36.8417 33.5574H15.1833Z" fill="white" style="fill:white;fill:white;fill-opacity:1;"/>
</g>
<defs>
<clipPath id="clip0_5201_9762">
<rect width="53" height="34" fill="white" style="fill:white;fill:white;fill-opacity:1;" transform="translate(0 0.5)"/>
</clipPath>
</defs>
</svg>
