<svg width="48" height="48" viewBox="0 0 48 48" fill="none" xmlns="http://www.w3.org/2000/svg">
<rect width="48" height="48" rx="24" fill="black"/>
<path fill-rule="evenodd" clip-rule="evenodd" d="M23.7981 15.0833C23.7981 15.0833 26.8653 13.3327 30.8326 13.1277L30.8291 13.1347C35.156 12.9123 37.5788 13.9097 39.6189 14.7496C39.6501 14.7625 39.6812 14.7753 39.7123 14.7881C39.7123 14.7881 39.5669 14.8958 38.4799 14.531C36.1431 13.7425 34.2875 13.5932 32.3143 13.6105C27.5473 13.6418 25.034 15.4376 25.034 15.4376C25.6779 15.6113 30.663 17.3342 31.9265 20.9849C33.4151 25.3095 30.2372 28.0502 27.1076 28.3663C25.7552 28.5028 24.1144 28.3672 22.3982 27.7965V36.3612H19.7983V26.6812C19.5166 26.5389 19.2505 26.3939 19.0034 26.2439C18.4218 25.8931 17.5079 25.2956 16.9055 24.8197C16.4347 24.4446 16.2477 24.2431 16.8916 24.6079C17.971 25.2215 18.9439 25.6984 19.7983 26.0716V20.8448H22.3982V27.0425C22.6476 27.1196 22.8689 27.1835 23.0607 27.2374C24.1858 27.5534 26.8203 27.9008 28.1219 26.7267C29.2159 25.7402 29.8321 23.208 28.3089 20.971C26.9588 18.9911 25.4321 17.9282 24.3381 17.3724C24.3277 17.3689 24.3208 17.3655 24.3104 17.3585C24.307 17.355 24.3026 17.3524 24.2983 17.3498C24.294 17.3472 24.2897 17.3446 24.2862 17.3412C22.9534 16.636 21.6725 16.2505 20.8486 16.0525C20.6582 16.0004 20.4643 15.9517 20.2704 15.917C18.716 15.6287 17.4871 15.4828 16.1993 15.851C14.9218 16.2192 14.8353 17.3759 14.9184 17.7892C15.0361 18.4145 15.455 18.6854 16.0712 18.8174C17.6117 19.1405 18.8407 18.4735 19.9969 17.7094C20.078 17.6556 20.1536 17.6056 20.2247 17.5587C20.4933 17.3813 20.6963 17.2472 20.8797 17.1154C20.9732 17.0528 22.036 17.4315 21.9494 17.4975C20.4954 18.5604 17.7363 20.4187 14.9461 19.5295C13.7621 19.1544 13.2082 17.6781 14.001 16.6048C14.3749 16.1011 14.8457 15.785 15.32 15.5662C16.9188 14.8275 18.7425 14.7456 19.7594 14.7C19.8566 14.6956 19.9465 14.6916 20.0281 14.6873C21.1774 14.6248 22.9188 14.8749 23.7981 15.0833Z" fill="white"/>
</svg>
